<svg width="8" height="12" viewBox="0 0 8 12" fill="none" xmlns="http://www.w3.org/2000/svg">
<path d="M1.6478 0.238189C1.22706 -0.119581 0.595958 -0.0685357 0.238189 0.352201C-0.119581 0.772938 -0.0685357 1.40404 0.352201 1.76181L1.6478 0.238189ZM6.88 6L7.5278 6.76181C7.75124 6.57181 7.88 6.2933 7.88 6C7.88 5.7067 7.75124 5.42819 7.5278 5.23819L6.88 6ZM0.352201 10.2382C-0.0685357 10.596 -0.119581 11.2271 0.238189 11.6478C0.595958 12.0685 1.22706 12.1196 1.6478 11.7618L0.352201 10.2382ZM0.352201 1.76181L6.2322 6.76181L7.5278 5.23819L1.6478 0.238189L0.352201 1.76181ZM6.2322 5.23819L0.352201 10.2382L1.6478 11.7618L7.5278 6.76181L6.2322 5.23819Z" fill="#0072CE"/>
</svg>
